<?xml version="1.0" encoding="UTF-8"?>
<svg id="Layer_2" data-name="Layer 2" xmlns="http://www.w3.org/2000/svg" viewBox="0 0 612.5 256.4">
  <g id="Brand_name" data-name="Brand name">
    <g>
      <g>
        <path d="M188.33,0v46.55H55.37v53.96h122.03v43.03H55.37v61.72h135.78v46.55H0V0h188.33Z" fill="#231f20"/>
        <path d="M244.8,251.81l-62.43-182.34h52.55l38.44,124.5h.7l38.44-124.5h49.73l-61.72,182.34h-55.72Z" fill="#231f20"/>
        <path d="M368.55,41.26V0h50.08v41.26h-50.08ZM418.63,69.48v182.34h-50.08V69.48h50.08Z" fill="#231f20"/>
        <path d="M440.39,125.55c.71-11.75,3.64-21.51,8.82-29.27,5.17-7.76,11.75-13.99,19.75-18.69,7.99-4.7,16.98-8.05,26.98-10.05,9.99-1.99,20.04-3,30.16-3,9.17,0,18.45.65,27.86,1.94,9.4,1.29,17.99,3.82,25.75,7.58,7.76,3.76,14.11,8.99,19.05,15.69,4.94,6.7,7.4,15.58,7.4,26.63v94.87c0,8.23.47,16.11,1.41,23.63.94,7.53,2.58,13.17,4.94,16.93h-50.79c-.94-2.82-1.71-5.7-2.29-8.64-.59-2.94-1-5.93-1.23-8.99-8,8.23-17.4,13.99-28.22,17.28-10.82,3.29-21.87,4.94-33.15,4.94-8.7,0-16.81-1.06-24.34-3.17-7.53-2.12-14.11-5.41-19.75-9.87-5.64-4.46-10.05-10.11-13.23-16.93-3.17-6.82-4.76-14.93-4.76-24.34,0-10.34,1.82-18.87,5.47-25.57,3.64-6.7,8.34-12.05,14.11-16.05,5.76-4,12.35-6.99,19.75-8.99,7.4-1.99,14.87-3.58,22.39-4.76,7.52-1.17,14.93-2.12,22.22-2.82,7.28-.7,13.76-1.76,19.4-3.17,5.64-1.41,10.11-3.47,13.4-6.17,3.29-2.7,4.81-6.64,4.58-11.81,0-5.41-.88-9.7-2.65-12.87-1.76-3.17-4.12-5.64-7.05-7.41-2.94-1.76-6.35-2.94-10.23-3.53-3.88-.58-8.06-.88-12.52-.88-9.87,0-17.63,2.12-23.28,6.35-5.64,4.23-8.94,11.28-9.87,21.16h-50.08ZM556.07,162.59c-2.12,1.88-4.76,3.35-7.94,4.41-3.17,1.06-6.59,1.94-10.23,2.65-3.65.71-7.47,1.29-11.46,1.76-4,.47-8,1.06-11.99,1.76-3.76.7-7.47,1.65-11.11,2.82-3.65,1.18-6.82,2.77-9.52,4.76-2.71,2-4.88,4.53-6.52,7.58-1.65,3.06-2.47,6.94-2.47,11.64s.82,8.23,2.47,11.29c1.64,3.06,3.88,5.47,6.7,7.23,2.82,1.76,6.11,3,9.87,3.7,3.76.71,7.64,1.06,11.64,1.06,9.87,0,17.51-1.64,22.93-4.94,5.4-3.29,9.4-7.23,11.99-11.82,2.58-4.58,4.17-9.23,4.76-13.93.58-4.7.88-8.46.88-11.28v-18.69Z" fill="#231f20"/>
      </g>
      <path d="M574.07,39.92c.74-1.63,1.74-3.01,2.98-4.15,1.25-1.14,2.69-2.03,4.33-2.65,1.64-.62,3.35-.94,5.14-.94s3.5.31,5.14.94c1.64.62,3.08,1.51,4.33,2.65,1.25,1.14,2.24,2.53,2.99,4.15.74,1.62,1.11,3.44,1.11,5.44s-.37,3.85-1.11,5.47c-.74,1.63-1.74,3.02-2.99,4.17s-2.69,2.03-4.33,2.65c-1.64.61-3.35.92-5.14.92s-3.5-.31-5.14-.92c-1.64-.61-3.08-1.49-4.33-2.65-1.25-1.15-2.24-2.54-2.98-4.17-.74-1.62-1.11-3.45-1.11-5.47s.37-3.81,1.11-5.44ZM577.34,49.52c.52,1.27,1.22,2.38,2.12,3.3.9.93,1.95,1.65,3.16,2.17,1.21.52,2.51.78,3.9.78s2.65-.26,3.87-.78c1.21-.52,2.26-1.24,3.16-2.17.89-.93,1.61-2.03,2.14-3.3.53-1.27.79-2.66.79-4.17s-.26-2.89-.79-4.15c-.53-1.26-1.24-2.35-2.14-3.27-.9-.92-1.95-1.64-3.16-2.15-1.22-.52-2.5-.78-3.87-.78s-2.69.26-3.9.78c-1.21.52-2.26,1.24-3.16,2.15-.9.92-1.6,2.01-2.12,3.27-.52,1.26-.78,2.64-.78,4.15s.26,2.9.78,4.17ZM586.84,37.94c1.86,0,3.29.33,4.29.99,1,.66,1.5,1.79,1.5,3.39,0,.68-.1,1.27-.3,1.75-.2.48-.48.88-.83,1.18s-.76.54-1.24.71c-.47.17-.98.27-1.52.32l3.96,6.46h-3.07l-3.6-6.32h-1.84v6.32h-2.93v-14.8h5.58ZM586.8,44.12c.85,0,1.54-.12,2.08-.35.54-.23.81-.8.81-1.69,0-.4-.1-.72-.28-.95s-.43-.42-.72-.55c-.29-.13-.62-.22-.99-.27-.37-.05-.71-.07-1.04-.07h-2.47v3.88h2.61Z" fill="#231f20"/>
    </g>
  </g>
</svg>