<?xml version="1.0" encoding="UTF-8"?>
<svg id="Layer_2" data-name="Layer 2" xmlns="http://www.w3.org/2000/svg" viewBox="0 0 403.45 45.39">
  <g id="Layer_1-2" data-name="Layer 1">
    <path d="M394.38,27.26v18.13M385.32,36.32h18.13M364.74,27.26v18.13M355.68,36.32h18.13M335.1,27.26v18.13M326.04,36.32h18.13M305.46,27.26v18.13M296.4,36.32h18.13M275.82,27.26v18.13M266.76,36.32h18.13M246.18,27.26v18.13M237.12,36.32h18.13M216.54,27.26v18.13M207.48,36.32h18.13M186.9,27.26v18.13M177.84,36.32h18.13M157.26,27.26v18.13M148.2,36.32h18.13M127.62,27.26v18.13M118.56,36.32h18.13M97.98,27.26v18.13M88.92,36.32h18.13M68.35,27.26v18.13M59.28,36.32h18.13M38.71,27.26v18.13M29.64,36.32h18.13M9.07,27.26v18.13M0,36.32h18.13M394.38,0v18.13M385.32,9.07h18.13M364.74,0v18.13M355.68,9.07h18.13M335.1,0v18.13M326.04,9.07h18.13M305.46,0v18.13M296.4,9.07h18.13M275.82,0v18.13M266.76,9.07h18.13M246.18,0v18.13M237.12,9.07h18.13M216.54,0v18.13M207.48,9.07h18.13M186.9,0v18.13M177.84,9.07h18.13M157.26,0v18.13M148.2,9.07h18.13M127.62,0v18.13M118.56,9.07h18.13M97.98,0v18.13M88.92,9.07h18.13M68.35,0v18.13M59.28,9.07h18.13M38.71,0v18.13M29.64,9.07h18.13M9.07,0v18.13M0,9.07h18.13" fill="none" stroke="#231f20" stroke-miterlimit="10" stroke-width=".15"/>
  </g>
</svg>