<?xml version="1.0" encoding="UTF-8"?>
<svg id="Layer_2" data-name="Layer 2" xmlns="http://www.w3.org/2000/svg" viewBox="0 0 136.75 151.41">
  <g id="stickers">
    <g>
      <g>
        <path d="M11.17,23.48l-1.56-1.64,7.27-6.9,1.56,1.64-2.66,2.52,6.86,7.23-1.95,1.85-6.86-7.23-2.66,2.52Z" fill="#fff"/>
        <path d="M22.3,18.45c-.3-.49-.46-.96-.47-1.41-.01-.45.08-.88.26-1.29.19-.41.45-.79.79-1.15.34-.36.71-.68,1.11-.96.36-.26.75-.49,1.16-.7.41-.21.82-.35,1.23-.42.41-.07.81-.04,1.2.09s.73.41,1.04.85l2.65,3.77c.23.33.47.63.72.9.25.27.47.45.67.53l-2.02,1.42c-.12-.09-.23-.18-.33-.28-.11-.1-.21-.21-.3-.32-.09.55-.3,1.04-.64,1.48-.34.43-.73.81-1.18,1.12-.35.24-.7.43-1.06.55s-.71.18-1.06.16c-.35-.02-.68-.12-1-.3-.32-.18-.61-.46-.87-.83-.29-.41-.46-.8-.5-1.17s0-.71.11-1.03c.12-.32.29-.62.53-.91s.49-.56.76-.82c.27-.26.53-.5.8-.73s.5-.45.68-.67.3-.42.36-.62c.06-.2,0-.4-.15-.6-.15-.21-.31-.36-.46-.44-.16-.08-.32-.11-.49-.1s-.33.06-.5.15c-.17.09-.34.19-.52.32-.39.28-.64.58-.75.9-.11.33-.04.7.2,1.12l-1.99,1.4ZM27.93,16.69c-.03.13-.1.27-.19.4-.1.13-.21.26-.33.39s-.26.26-.41.39c-.15.13-.29.27-.43.41-.13.13-.25.27-.36.42-.11.15-.19.3-.25.46-.05.16-.07.32-.05.48.02.17.1.34.23.53.12.18.26.3.41.38.15.08.31.11.47.1s.33-.05.5-.13c.17-.08.33-.17.49-.28.39-.28.65-.55.77-.84.12-.28.17-.55.15-.8-.03-.25-.09-.48-.2-.69s-.2-.36-.28-.47l-.52-.74Z" fill="#fff"/>
        <path d="M31.81,5.27l2.87,5.9,1.36-4.21,2.59-1.26-1.58,4.39,5.79,3.41-2.65,1.29-3.92-2.49-.45,1.23,1.33,2.74-2.19,1.06-5.35-11,2.19-1.06Z" fill="#fff"/>
        <path d="M46.03,10.28c.45.23,1.01.25,1.66.05.47-.14.84-.38,1.1-.72.27-.34.4-.65.4-.94l2.05-.62c-.02,1.12-.3,2-.84,2.64-.54.64-1.3,1.11-2.26,1.41-.67.2-1.3.28-1.9.23-.6-.05-1.15-.21-1.64-.49-.49-.28-.92-.66-1.29-1.15-.37-.48-.65-1.05-.85-1.71-.19-.63-.27-1.25-.23-1.86.04-.61.19-1.17.45-1.69.26-.52.62-.97,1.08-1.36s1.01-.68,1.66-.88c.72-.22,1.39-.27,2.01-.16.62.12,1.17.36,1.66.72s.9.82,1.24,1.38c.34.55.58,1.17.74,1.83l-6.11,1.86c.26.74.62,1.23,1.07,1.46ZM47.3,5.02c-.37-.22-.84-.24-1.41-.07-.37.11-.66.27-.87.47-.21.2-.36.42-.45.65-.09.23-.13.46-.13.69,0,.23.02.42.06.59l3.79-1.16c-.29-.56-.62-.94-.99-1.17Z" fill="#fff"/>
        <path d="M63.99,1.84c-.39.02-.71.12-.96.31s-.46.43-.61.72-.25.6-.31.94-.07.68-.05,1.01c.02.32.07.64.15.97.08.33.21.62.38.88s.39.47.66.63c.27.16.59.23.97.21.58-.03,1.02-.21,1.32-.55s.47-.79.53-1.34l2.34-.11c-.1,1.18-.52,2.1-1.24,2.75s-1.67,1.01-2.85,1.06c-.66.03-1.28-.05-1.84-.24-.56-.2-1.05-.48-1.46-.86-.41-.38-.73-.84-.98-1.38-.24-.54-.38-1.14-.41-1.81-.03-.68.04-1.33.21-1.92s.44-1.12.81-1.57c.37-.45.82-.8,1.37-1.07.55-.27,1.18-.42,1.9-.45.52-.03,1.03.02,1.52.13.49.11.93.3,1.33.56.4.26.72.59.98,1s.42.89.48,1.46l-2.38.12c-.21-1.01-.83-1.49-1.87-1.44Z" fill="#fff"/>
        <path d="M71.59,2.67c.28-.55.64-1,1.09-1.36.44-.36.96-.61,1.54-.77.58-.16,1.22-.2,1.91-.12.69.08,1.31.26,1.84.55s.98.65,1.33,1.1c.35.45.6.97.75,1.57.15.6.18,1.25.1,1.95s-.26,1.33-.54,1.87-.64.99-1.09,1.35-.96.61-1.54.76c-.59.15-1.23.19-1.92.11-.69-.08-1.3-.26-1.83-.54-.53-.28-.97-.64-1.32-1.09-.35-.45-.6-.97-.75-1.56-.15-.59-.18-1.24-.1-1.94s.26-1.33.54-1.88ZM73.45,5.87c.03.34.11.66.25.94s.33.52.58.71.59.31.99.36c.41.05.76,0,1.06-.12.3-.13.54-.31.74-.56.2-.25.35-.53.45-.86.11-.33.18-.67.22-1.02.04-.35.05-.7.02-1.05-.03-.35-.11-.66-.24-.94-.13-.28-.33-.52-.59-.71-.26-.2-.59-.32-1-.37-.41-.05-.76,0-1.05.13-.29.13-.54.32-.73.56s-.35.53-.45.86-.18.67-.22,1.03c-.04.35-.05.7-.02,1.04Z" fill="#fff"/>
        <path d="M86.72,2.65l-.34,1.18h.05c.44-.39.93-.64,1.47-.73s1.05-.06,1.55.08c.62.18,1.11.42,1.46.7s.6.61.74.98c.14.37.2.78.16,1.24-.03.46-.13.95-.28,1.48l-1.53,5.23-2.33-.68,1.4-4.8c.2-.7.25-1.26.13-1.67-.12-.41-.46-.7-1.02-.86-.64-.19-1.15-.13-1.55.16-.4.3-.72.88-.97,1.74l-1.3,4.46-2.33-.68,2.48-8.5,2.22.65Z" fill="#fff"/>
        <path d="M100.59,7.81l-.66,1.49-1.63-.73-1.79,4c-.17.38-.22.65-.15.83.07.18.29.36.67.52.12.06.25.1.37.15.12.04.24.07.35.1l-.77,1.72c-.2-.05-.42-.12-.65-.22-.23-.09-.46-.19-.68-.28-.34-.15-.66-.32-.95-.51-.29-.18-.52-.4-.69-.64-.17-.24-.27-.52-.3-.83-.02-.31.06-.67.24-1.08l2.13-4.77-1.35-.6.66-1.49,1.35.6,1.08-2.42,2.22.99-1.08,2.42,1.63.73Z" fill="#fff"/>
        <path d="M105.57,10.56l-.84,1.42.03.02c.24-.18.5-.32.79-.42.29-.1.58-.16.88-.18s.6.01.89.08c.29.07.57.18.84.33.14.08.27.2.41.34l-1.15,1.95c-.09-.08-.2-.16-.32-.26s-.26-.18-.38-.26c-.38-.23-.75-.35-1.09-.38-.34-.03-.66.02-.95.14s-.56.31-.8.57c-.24.25-.47.55-.67.9l-2.03,3.44-2.09-1.24,4.51-7.62,1.99,1.18Z" fill="#fff"/>
        <path d="M109.62,16.03c.53-.31,1.08-.5,1.64-.57.57-.07,1.14,0,1.71.17.58.18,1.13.48,1.68.92.54.44.96.92,1.27,1.45.3.53.48,1.07.54,1.64.06.57,0,1.14-.2,1.73s-.51,1.15-.95,1.71c-.44.55-.93.98-1.46,1.29-.53.31-1.07.5-1.64.56-.57.07-1.14,0-1.71-.18-.58-.19-1.14-.5-1.68-.93s-.96-.91-1.26-1.43c-.3-.52-.48-1.06-.54-1.63s0-1.14.2-1.72c.19-.58.5-1.15.95-1.7.44-.55.93-.98,1.46-1.3ZM109.48,19.72c-.16.31-.26.61-.29.93s0,.62.11.91c.11.3.33.57.65.83.32.26.64.41.96.46.32.05.63.02.92-.08.3-.11.58-.27.84-.49.26-.22.51-.47.73-.74s.41-.57.57-.88.26-.62.29-.93c.04-.31,0-.61-.12-.92-.12-.3-.33-.59-.65-.84-.32-.26-.64-.41-.96-.45-.32-.04-.62-.01-.92.09s-.57.26-.84.49c-.27.22-.51.47-.73.75-.22.28-.41.57-.57.87Z" fill="#fff"/>
        <path d="M124.8,21.67l-8.8,8.5-1.69-1.75,8.8-8.5,1.69,1.75Z" fill="#fff"/>
      </g>
      <g>
        <path d="M4.37,105.24c.61-.09,1.19-.06,1.74.1s1.05.42,1.52.81c.46.38.87.88,1.2,1.49.34.61.54,1.22.62,1.82s.04,1.18-.13,1.72-.44,1.05-.84,1.52-.91.87-1.53,1.22-1.23.55-1.84.64c-.61.09-1.18.05-1.73-.1-.55-.15-1.05-.43-1.52-.82-.46-.39-.86-.89-1.2-1.5-.34-.61-.54-1.21-.62-1.81s-.04-1.17.12-1.71c.16-.55.44-1.05.84-1.52.4-.47.9-.87,1.52-1.21s1.24-.56,1.85-.64ZM2.84,108.6c-.26.22-.47.47-.63.75s-.24.57-.24.89c0,.32.09.66.29,1.02.2.36.43.62.71.79s.57.26.89.28c.31.02.64-.03.96-.13.33-.1.65-.24.96-.41.31-.17.6-.37.87-.59.27-.23.48-.47.63-.75.15-.27.23-.57.24-.89,0-.33-.08-.67-.28-1.03-.2-.36-.44-.62-.71-.78s-.57-.25-.88-.27c-.31-.02-.63.03-.96.13-.33.11-.66.24-.96.41-.31.17-.6.37-.86.59Z" fill="#fff"/>
        <path d="M10.57,114.14l1.31-.97.87,1.17.55-.41c.63-.47,1.3-.66,1.99-.57.7.09,1.34.54,1.94,1.34.13.17.25.35.37.54s.23.36.34.53l-1.46,1.08c-.14-.25-.31-.5-.49-.75-.2-.27-.4-.41-.61-.43s-.46.08-.75.29l-.43.32,1,1.35-1.3.97-1-1.35-5.8,4.32-1.45-1.95,5.8-4.32-.87-1.17Z" fill="#fff"/>
        <path d="M15.58,134.48c-.56-.08-1.15-.39-1.78-.94-.19-.17-.37-.33-.54-.51s-.35-.35-.52-.54l1.32-1.51c.16.17.32.34.48.51.17.17.34.34.53.49.26.18.53.25.78.18.26-.06.47-.19.65-.39.13-.15.22-.31.28-.48l3.13-8.3,1.95,1.7-2.48,5.89.03.02,5.45-3.3,1.9,1.66-9.33,5.07c-.67.37-1.28.52-1.84.44Z" fill="#fff"/>
        <path d="M26.85,132.14c.49-.37,1.01-.62,1.57-.76.55-.13,1.13-.14,1.72-.03.59.11,1.18.35,1.77.72.59.37,1.07.8,1.43,1.29s.6,1.01.72,1.57c.12.56.12,1.14,0,1.74-.12.6-.37,1.21-.75,1.81-.38.6-.81,1.08-1.3,1.45-.49.37-1.01.62-1.56.75-.55.13-1.13.14-1.72.02-.59-.12-1.19-.36-1.78-.73-.59-.37-1.06-.8-1.42-1.28s-.6-1-.72-1.56c-.12-.56-.12-1.13,0-1.73.12-.6.37-1.2.75-1.8.38-.6.81-1.09,1.3-1.46ZM27.14,135.82c-.12.32-.18.64-.19.96,0,.32.07.61.22.89.15.28.4.53.74.75.35.22.68.33,1.01.35.32.01.62-.05.91-.19.28-.14.54-.33.78-.58s.45-.52.64-.82.34-.61.47-.94c.12-.33.19-.64.19-.96,0-.31-.08-.61-.22-.9-.15-.29-.4-.54-.75-.76-.35-.22-.68-.33-1-.34-.32,0-.62.06-.9.19-.28.13-.54.33-.78.58-.24.25-.46.53-.64.83-.19.3-.34.61-.46.93Z" fill="#fff"/>
        <path d="M40.29,146.4l.47-1.14-.05-.02c-.48.36-.99.55-1.53.58s-1.05-.06-1.53-.25c-.6-.25-1.06-.53-1.38-.85-.32-.32-.53-.67-.63-1.05-.1-.38-.11-.8-.03-1.25.08-.46.23-.94.43-1.44l2.07-5.04,2.25.92-1.9,4.63c-.28.68-.38,1.22-.3,1.64.08.42.38.74.92.96.61.25,1.13.25,1.56,0,.42-.25.81-.79,1.15-1.63l1.76-4.3,2.25.92-3.36,8.19-2.14-.88Z" fill="#fff"/>
        <path d="M51.03,140.49l-.4,1.6h.03c.18-.23.39-.44.63-.62.25-.18.51-.32.79-.42s.58-.16.88-.18c.3-.02.6,0,.9.08.16.04.32.11.49.21l-.55,2.19c-.11-.05-.23-.1-.38-.16-.15-.06-.3-.1-.44-.14-.43-.11-.82-.13-1.15-.06-.33.07-.62.21-.87.41s-.45.46-.61.78c-.16.31-.29.66-.38,1.05l-.96,3.87-2.36-.59,2.14-8.6,2.24.56Z" fill="#fff"/>
        <path d="M64.68,142.46l-.02,1.23h.05c.32-.51.72-.88,1.22-1.1.5-.23,1-.33,1.51-.33.65.01,1.18.11,1.6.29.41.18.74.44.97.75.23.32.4.7.49,1.16.09.45.13.95.12,1.5l-.09,5.45-2.43-.04.08-5c.01-.73-.09-1.28-.32-1.64-.22-.36-.62-.55-1.21-.56-.66-.01-1.15.18-1.45.57-.3.39-.46,1.04-.48,1.94l-.08,4.64-2.43-.04.14-8.86,2.31.04Z" fill="#fff"/>
        <path d="M80.85,150.18l-.19-1.22h-.05c-.23.56-.57.99-1.02,1.29-.45.3-.93.49-1.44.57-.64.1-1.18.1-1.62,0-.44-.11-.8-.3-1.08-.57-.28-.27-.51-.63-.67-1.06-.17-.43-.29-.92-.37-1.46l-.83-5.38,2.4-.37.76,4.94c.11.72.31,1.24.59,1.57.28.32.71.44,1.28.35.65-.1,1.1-.37,1.33-.8s.28-1.1.14-1.99l-.71-4.59,2.41-.37,1.35,8.75-2.29.35Z" fill="#fff"/>
        <path d="M89.44,138.84l.47,1.56-1.71.51,1.27,4.2c.12.39.26.64.43.73s.45.08.85-.04c.13-.04.25-.08.37-.13.12-.05.23-.1.33-.15l.54,1.8c-.19.09-.4.18-.64.26-.24.08-.47.16-.7.23-.36.11-.71.19-1.05.24-.34.05-.65.04-.94-.03-.29-.07-.54-.21-.77-.43-.22-.22-.4-.54-.53-.97l-1.51-5-1.41.43-.47-1.56,1.41-.43-.77-2.54,2.33-.7.77,2.54,1.71-.51Z" fill="#fff"/>
        <path d="M93.93,137.04l.65,1.51h.03c0-.31.04-.6.12-.9.08-.29.21-.56.37-.82.17-.25.36-.48.59-.67s.48-.36.76-.48c.15-.06.32-.11.52-.13l.9,2.08c-.11.02-.25.06-.4.11s-.3.1-.43.16c-.41.18-.72.4-.95.65-.22.26-.37.54-.44.85-.07.31-.08.64-.01.99.06.35.17.7.33,1.07l1.59,3.66-2.23.97-3.52-8.13,2.12-.92Z" fill="#fff"/>
        <path d="M98.4,133.37l-.98-1.75,2.12-1.19.98,1.75-2.12,1.19ZM101.2,133.37l4.33,7.72-2.12,1.19-4.33-7.72,2.12-1.19Z" fill="#fff"/>
        <path d="M107.89,128.95l.93,1.34-1.46,1.02,2.5,3.6c.23.34.45.52.64.56.19.03.46-.07.79-.3.11-.08.22-.16.31-.24.1-.08.19-.16.27-.25l1.08,1.55c-.15.15-.32.29-.52.45-.2.15-.4.3-.59.43-.31.21-.62.4-.92.55-.31.15-.61.24-.9.26-.29.02-.58-.03-.86-.17-.28-.14-.54-.39-.8-.76l-2.98-4.29-1.21.84-.93-1.34,1.21-.84-1.52-2.18,2-1.39,1.52,2.18,1.46-1.02Z" fill="#fff"/>
        <path d="M109.04,126.24l-1.3-1.53,1.85-1.58,1.3,1.53-1.85,1.58ZM111.78,125.7l5.75,6.74-1.85,1.58-5.75-6.74,1.85-1.58Z" fill="#fff"/>
        <path d="M116.05,125.33c-.28-.55-.44-1.11-.47-1.67s.06-1.13.27-1.7c.21-.56.55-1.1,1.02-1.62.47-.52.97-.91,1.52-1.18.54-.27,1.1-.42,1.67-.44.57-.02,1.14.08,1.71.3.57.23,1.12.58,1.65,1.05.52.48.92.99,1.2,1.53.28.54.43,1.1.46,1.67s-.06,1.13-.28,1.7-.56,1.1-1.03,1.62c-.47.52-.97.91-1.51,1.18-.54.27-1.09.42-1.66.44-.57.02-1.14-.08-1.71-.3-.57-.22-1.12-.57-1.64-1.05-.52-.48-.93-.99-1.21-1.54ZM119.73,125.68c.3.18.6.29.91.35.31.06.62.04.92-.06.3-.09.59-.29.87-.6s.45-.61.52-.93.06-.62-.03-.93c-.09-.3-.23-.59-.44-.87s-.44-.54-.7-.77c-.26-.24-.54-.45-.84-.63s-.6-.3-.91-.35-.61-.03-.92.06c-.31.1-.6.3-.88.6-.28.3-.44.61-.51.93-.06.31-.05.62.03.92.08.3.23.59.44.87.21.28.44.54.7.78.26.24.54.44.84.62Z" fill="#fff"/>
        <path d="M122.99,112.96l1.04.66.03-.04c-.27-.54-.37-1.07-.3-1.61s.24-1.03.51-1.46c.35-.55.71-.95,1.08-1.21s.76-.4,1.15-.44c.39-.03.81.03,1.24.19.43.16.88.39,1.34.68l4.6,2.93-1.31,2.05-4.22-2.69c-.62-.39-1.14-.59-1.56-.59-.43,0-.8.25-1.11.74-.36.56-.45,1.07-.27,1.53.17.46.64.94,1.4,1.42l3.92,2.49-1.31,2.05-7.47-4.76,1.24-1.95Z" fill="#fff"/>
        <path d="M134.36,105.22l2.39,1.12-1.14,2.44-2.39-1.12,1.14-2.44Z" fill="#fff"/>
      </g>
      <g>
        <circle cx="67.39" cy="75.45" r="59.31" fill="#ffe600"/>
        <circle cx="67.39" cy="75.45" r="51.12" fill="none" stroke="#231f20" stroke-miterlimit="10" stroke-width="1.22"/>
        <path d="M88.48,80.2c-3.99,11.16-16.27,16.98-27.44,12.98-11.16-3.99-16.98-16.27-12.98-27.44" fill="none" stroke="#231f20" stroke-linecap="round" stroke-miterlimit="10" stroke-width="1.22"/>
        <g>
          <circle cx="63.76" cy="62.42" r="2.42" fill="#231f20"/>
          <circle cx="78.45" cy="67.68" r="2.42" fill="#231f20"/>
        </g>
      </g>
    </g>
  </g>
</svg>