<svg fill="none" height="24" viewBox="0 0 24 24" width="24" xmlns="http://www.w3.org/2000/svg"><path clip-rule="evenodd" d="m12 2c-5.52285 0-10 4.47715-10 10 0 .1598.00374.3187.01115.4766.01293.2758-.2002.5099-.47604.5229-.27584.0129-.50993-.2002-.52287-.4761-.00813-.1735-.01224-.348-.01224-.5234 0-6.07513 4.92487-11 11-11 3.721 0 7.0098 1.8476 9.0001 4.67411l-.0001-4.17411c0-.27614.2239-.5.5-.5s.5.22386.5.5v6c0 .27614-.2239.5-.5.5h-6c-.2761 0-.5-.22386-.5-.5s.2239-.5.5-.5l5.1623.00003c-1.7295-2.98982-4.9616-5.00003-8.6623-5.00003zm10.4649 9.0006c.2759-.013.51.2002.5229.476.0081.1735.0123.348.0123.5234 0 6.0751-4.9249 11-11 11-3.72104 0-7.00979-1.8476-9.0001-4.6741v4.1741c0 .2762-.22386.5-.5.5s-.5-.2238-.5-.5v-6c0-.2761.22386-.5.5-.5h6c.27614 0 .5.2239.5.5 0 .2762-.22386.5-.5.5h-5.16224c1.72955 2.9898 4.96159 5 8.66234 5 5.5228 0 10-4.4771 10-10 0-.1598-.0038-.3187-.0112-.4766-.0129-.2758.2002-.5099.476-.5228z" fill="rgb(0,0,0)" fill-rule="evenodd"/></svg>